<svg xmlns="http://www.w3.org/2000/svg" width="720" height="300" font-family="sans-serif" font-size="13">
  <rect width="720" height="300" fill="#fbfbfd"/>
  <!-- TCP side -->
  <text x="170" y="24" text-anchor="middle" font-weight="bold">传统 TCP/IP</text>
  <rect x="60" y="40" width="220" height="34" fill="#e3f2fd" stroke="#1976d2"/>
  <text x="170" y="62" text-anchor="middle">应用 (用户态 buffer)</text>
  <rect x="60" y="86" width="220" height="34" fill="#fff3e0" stroke="#ef6c00"/>
  <text x="170" y="108" text-anchor="middle">系统调用 / socket 拷贝</text>
  <rect x="60" y="132" width="220" height="34" fill="#fff3e0" stroke="#ef6c00"/>
  <text x="170" y="154" text-anchor="middle">内核 TCP/IP 协议栈</text>
  <rect x="60" y="178" width="220" height="34" fill="#ede7f6" stroke="#5e35b1"/>
  <text x="170" y="200" text-anchor="middle">网卡 (NIC)</text>
  <line x1="170" y1="74" x2="170" y2="86" stroke="#555" marker-end="url(#a)"/>
  <line x1="170" y1="120" x2="170" y2="132" stroke="#555" marker-end="url(#a)"/>
  <line x1="170" y1="166" x2="170" y2="178" stroke="#555" marker-end="url(#a)"/>
  <text x="170" y="240" text-anchor="middle" fill="#c62828">CPU 全程参与 · 多次拷贝 · 中断</text>

  <!-- RDMA side -->
  <text x="540" y="24" text-anchor="middle" font-weight="bold">RDMA</text>
  <rect x="430" y="40" width="220" height="34" fill="#e3f2fd" stroke="#1976d2"/>
  <text x="540" y="62" text-anchor="middle">应用 (已注册 MR)</text>
  <rect x="430" y="178" width="220" height="34" fill="#ede7f6" stroke="#5e35b1"/>
  <text x="540" y="200" text-anchor="middle">网卡 (RNIC) — DMA</text>
  <path d="M540 74 C 700 100, 700 150, 540 178" fill="none" stroke="#2e7d32" stroke-width="2" marker-end="url(#a)"/>
  <text x="615" y="130" fill="#2e7d32">旁路内核</text>
  <rect x="430" y="92" width="220" height="68" fill="none" stroke="#bbb" stroke-dasharray="4"/>
  <text x="540" y="130" text-anchor="middle" fill="#999">内核/拷贝被跳过</text>
  <text x="540" y="240" text-anchor="middle" fill="#2e7d32">Kernel Bypass · Zero Copy · 低延迟</text>
  <defs><marker id="a" markerWidth="8" markerHeight="8" refX="6" refY="3" orient="auto"><path d="M0,0 L6,3 L0,6 z" fill="#555"/></marker></defs>
</svg>
