<svg xmlns="http://www.w3.org/2000/svg" width="720" height="330" font-family="sans-serif" font-size="13">
  <rect width="720" height="330" fill="#fbfbfd"/>
  <rect x="20" y="20" width="680" height="290" fill="none" stroke="#90a4ae" stroke-dasharray="5"/>
  <text x="36" y="42" fill="#546e7a" font-weight="bold">PD (Protection Domain)</text>

  <!-- MR -->
  <rect x="40" y="60" width="180" height="80" fill="#e8f5e9" stroke="#2e7d32"/>
  <text x="130" y="86" text-anchor="middle" font-weight="bold">MR</text>
  <text x="130" y="106" text-anchor="middle">注册内存</text>
  <text x="130" y="124" text-anchor="middle" font-size="11">lkey / rkey</text>

  <!-- QP -->
  <rect x="270" y="60" width="200" height="160" fill="#e3f2fd" stroke="#1565c0"/>
  <text x="370" y="84" text-anchor="middle" font-weight="bold">QP (Queue Pair)</text>
  <rect x="290" y="100" width="160" height="44" fill="#fff" stroke="#1565c0"/>
  <text x="370" y="127" text-anchor="middle">SQ — Send Queue</text>
  <rect x="290" y="156" width="160" height="44" fill="#fff" stroke="#1565c0"/>
  <text x="370" y="183" text-anchor="middle">RQ — Recv Queue</text>

  <!-- CQ -->
  <rect x="520" y="60" width="160" height="160" fill="#fff3e0" stroke="#ef6c00"/>
  <text x="600" y="84" text-anchor="middle" font-weight="bold">CQ</text>
  <rect x="540" y="100" width="120" height="26" fill="#fff" stroke="#ef6c00"/>
  <text x="600" y="118" text-anchor="middle" font-size="11">CQE (完成事件)</text>
  <rect x="540" y="134" width="120" height="26" fill="#fff" stroke="#ef6c00"/>
  <text x="600" y="152" text-anchor="middle" font-size="11">CQE</text>

  <!-- WR arrows -->
  <text x="130" y="180" text-anchor="middle" font-size="11" fill="#555">post_send/write/read → SQ</text>
  <text x="130" y="200" text-anchor="middle" font-size="11" fill="#555">post_recv → RQ</text>
  <line x1="220" y1="122" x2="290" y2="122" stroke="#2e7d32" stroke-dasharray="3"/>
  <text x="245" y="115" font-size="10" fill="#2e7d32">引用</text>
  <line x1="450" y1="140" x2="520" y2="140" stroke="#ef6c00" marker-end="url(#b)"/>
  <text x="485" y="133" font-size="10" fill="#ef6c00">完成</text>
  <text x="370" y="250" text-anchor="middle" fill="#555">poll_cq / get_*_comp 从 CQ 取完成 →</text>
  <defs><marker id="b" markerWidth="8" markerHeight="8" refX="6" refY="3" orient="auto"><path d="M0,0 L6,3 L0,6 z" fill="#ef6c00"/></marker></defs>
</svg>
