<svg xmlns="http://www.w3.org/2000/svg" width="720" height="270" font-family="sans-serif" font-size="13">
  <rect width="720" height="270" fill="#fbfbfd"/>
  <rect x="40" y="50" width="200" height="150" fill="#e8f5e9" stroke="#2e7d32"/>
  <text x="140" y="40" text-anchor="middle" font-weight="bold">应用虚拟内存 buffer</text>
  <text x="140" y="90" text-anchor="middle">remote_writable_data[]</text>
  <line x1="240" y1="125" x2="340" y2="125" stroke="#555" marker-end="url(#c)"/>
  <text x="290" y="116" text-anchor="middle" font-size="11">ibv_reg_mr</text>

  <rect x="340" y="50" width="200" height="150" fill="#ede7f6" stroke="#5e35b1"/>
  <text x="440" y="40" text-anchor="middle" font-weight="bold">网卡映射表 (MPT/MTT)</text>
  <text x="440" y="85" text-anchor="middle">pin 物理页</text>
  <text x="440" y="110" text-anchor="middle">虚拟→物理映射</text>
  <rect x="360" y="130" width="160" height="26" fill="#fff" stroke="#5e35b1"/>
  <text x="440" y="148" text-anchor="middle">lkey (本端用)</text>
  <rect x="360" y="162" width="160" height="26" fill="#fff" stroke="#5e35b1"/>
  <text x="440" y="180" text-anchor="middle">rkey (给对端)</text>

  <path d="M520 175 C 620 175, 620 110, 600 90" fill="none" stroke="#c62828" stroke-width="2" marker-end="url(#c)"/>
  <text x="630" y="140" text-anchor="middle" font-size="11" fill="#c62828">rkey + addr</text>
  <text x="630" y="158" text-anchor="middle" font-size="11" fill="#c62828">经 SEND</text>
  <text x="630" y="176" text-anchor="middle" font-size="11" fill="#c62828">发给对端</text>
  <defs><marker id="c" markerWidth="8" markerHeight="8" refX="6" refY="3" orient="auto"><path d="M0,0 L6,3 L0,6 z" fill="#555"/></marker></defs>
</svg>
