<svg xmlns="http://www.w3.org/2000/svg" width="720" height="280" font-family="sans-serif" font-size="12">
  <rect width="720" height="280" fill="#fbfbfd"/>
  <!-- WRITE -->
  <text x="160" y="22" text-anchor="middle" font-weight="bold" fill="#1565c0">RDMA WRITE</text>
  <rect x="60" y="36" width="180" height="40" fill="#e3f2fd" stroke="#1565c0"/>
  <text x="150" y="61" text-anchor="middle" font-size="11">发起方 post_write</text>
  <rect x="480" y="36" width="180" height="40" fill="#eceff1" stroke="#90a4ae"/>
  <text x="570" y="55" text-anchor="middle" font-size="11">对端内存 (REMOTE_WRITE)</text>
  <text x="570" y="70" text-anchor="middle" font-size="10" fill="#999">CPU 无感</text>
  <line x1="240" y1="56" x2="480" y2="56" stroke="#1565c0" stroke-width="2" marker-end="url(#f)"/>
  <text x="360" y="48" text-anchor="middle" fill="#1565c0" font-size="11">数据 + remote_addr + rkey →</text>

  <!-- READ -->
  <text x="160" y="142" text-anchor="middle" font-weight="bold" fill="#2e7d32">RDMA READ</text>
  <rect x="60" y="156" width="180" height="40" fill="#e8f5e9" stroke="#2e7d32"/>
  <text x="150" y="181" text-anchor="middle" font-size="11">发起方 post_read</text>
  <rect x="480" y="156" width="180" height="40" fill="#eceff1" stroke="#90a4ae"/>
  <text x="570" y="175" text-anchor="middle" font-size="11">对端内存 (REMOTE_READ)</text>
  <text x="570" y="190" text-anchor="middle" font-size="10" fill="#999">CPU 无感</text>
  <line x1="480" y1="176" x2="240" y2="176" stroke="#2e7d32" stroke-width="2" marker-end="url(#g)"/>
  <text x="360" y="168" text-anchor="middle" fill="#2e7d32" font-size="11">← 拉回数据</text>

  <text x="360" y="245" text-anchor="middle" fill="#c62828">仅发起方收到 CQE；对端零参与（单边）</text>
  <defs>
    <marker id="f" markerWidth="9" markerHeight="9" refX="7" refY="3" orient="auto"><path d="M0,0 L7,3 L0,6 z" fill="#1565c0"/></marker>
    <marker id="g" markerWidth="9" markerHeight="9" refX="7" refY="3" orient="auto"><path d="M0,0 L7,3 L0,6 z" fill="#2e7d32"/></marker>
  </defs>
</svg>
