<svg xmlns="http://www.w3.org/2000/svg" width="720" height="420" font-family="sans-serif" font-size="11">
  <rect width="720" height="420" fill="#fbfbfd"/>
  <text x="170" y="22" text-anchor="middle" font-weight="bold">Client</text>
  <text x="550" y="22" text-anchor="middle" font-weight="bold">Server</text>
  <line x1="170" y1="32" x2="170" y2="400" stroke="#1565c0" stroke-width="2"/>
  <line x1="550" y1="32" x2="550" y2="400" stroke="#5e35b1" stroke-width="2"/>

  <text x="170" y="56" text-anchor="middle" fill="#2e7d32">post_recv(ack)</text>
  <text x="550" y="56" text-anchor="middle" fill="#2e7d32">post_recv(ctrl)</text>

  <line x1="170" y1="80" x2="550" y2="80" stroke="#1565c0" marker-end="url(#i)"/>
  <text x="360" y="73" text-anchor="middle">connect / accept 建链</text>

  <line x1="170" y1="120" x2="550" y2="120" stroke="#1565c0" marker-end="url(#i)"/>
  <text x="360" y="113" text-anchor="middle">① SEND: addr + rkey + size  (control_message)</text>
  <text x="360" y="138" text-anchor="middle" font-size="10" fill="#555">服务端 recv 完成，拿到客户端 MR 信息</text>

  <line x1="550" y1="170" x2="170" y2="170" stroke="#c62828" stroke-width="2" marker-end="url(#j)"/>
  <text x="360" y="163" text-anchor="middle" fill="#c62828">② RDMA WRITE: local_data → 客户端内存</text>
  <text x="360" y="188" text-anchor="middle" font-size="10" fill="#999">客户端 CPU 无感知（单边）</text>

  <line x1="550" y1="220" x2="170" y2="220" stroke="#5e35b1" marker-end="url(#j)"/>
  <text x="360" y="213" text-anchor="middle">③ SEND: ACK ("RDMA write completed")</text>

  <rect x="60" y="250" width="220" height="46" fill="#e8f5e9" stroke="#2e7d32"/>
  <text x="170" y="270" text-anchor="middle" font-size="10">客户端打印被覆盖的 buffer</text>
  <text x="170" y="286" text-anchor="middle" font-size="10">＝ 服务端写入的字符串</text>

  <line x1="170" y1="330" x2="550" y2="330" stroke="#999" stroke-dasharray="4" marker-end="url(#i)"/>
  <text x="360" y="323" text-anchor="middle" fill="#999">disconnect / dereg_mr / destroy_ep</text>
  <text x="360" y="375" text-anchor="middle" fill="#555">控制面(SEND/RECV) + 数据面(WRITE) 的经典组合</text>
  <defs>
    <marker id="i" markerWidth="9" markerHeight="9" refX="7" refY="3" orient="auto"><path d="M0,0 L7,3 L0,6 z" fill="#1565c0"/></marker>
    <marker id="j" markerWidth="9" markerHeight="9" refX="7" refY="3" orient="auto"><path d="M0,0 L7,3 L0,6 z" fill="#c62828"/></marker>
  </defs>
</svg>
